<?xml version="1.0" encoding="UTF-8" standalone="no"?>
<!-- Created with Inkscape (http://www.inkscape.org/) -->

<svg
   xmlns:dc="http://purl.org/dc/elements/1.1/"
   xmlns:cc="http://creativecommons.org/ns#"
   xmlns:rdf="http://www.w3.org/1999/02/22-rdf-syntax-ns#"
   xmlns:svg="http://www.w3.org/2000/svg"
   xmlns="http://www.w3.org/2000/svg"
   xmlns:sodipodi="http://sodipodi.sourceforge.net/DTD/sodipodi-0.dtd"
   xmlns:inkscape="http://www.inkscape.org/namespaces/inkscape"
   width="132.82083mm"
   height="38.099998mm"
   viewBox="0 0 132.82083 38.099998"
   id="svg3373"
   version="1.1"
   inkscape:version="0.91+devel r"
   sodipodi:docname="weLyonLogo1.svg">
  <defs
     id="defs3375" />
  <sodipodi:namedview
     id="base"
     pagecolor="#ffffff"
     bordercolor="#666666"
     borderopacity="1.0"
     inkscape:pageopacity="0.0"
     inkscape:pageshadow="2"
     inkscape:zoom="0.35"
     inkscape:cx="399.57141"
     inkscape:cy="-419.42857"
     inkscape:document-units="mm"
     inkscape:current-layer="layer1"
     showgrid="false"
     fit-margin-top="0"
     fit-margin-left="0"
     fit-margin-right="0"
     fit-margin-bottom="0"
     inkscape:window-width="1366"
     inkscape:window-height="743"
     inkscape:window-x="0"
     inkscape:window-y="0"
     inkscape:window-maximized="1" />
  <metadata
     id="metadata3378">
    <rdf:RDF>
      <cc:Work
         rdf:about="">
        <dc:format>image/svg+xml</dc:format>
        <dc:type
           rdf:resource="http://purl.org/dc/dcmitype/StillImage" />
        <dc:title></dc:title>
      </cc:Work>
    </rdf:RDF>
  </metadata>
  <g
     inkscape:label="Calque 1"
     inkscape:groupmode="layer"
     id="layer1"
     transform="translate(-0.11339667,0.24047552)">
    <g
       id="g3338"
       transform="matrix(0.26458333,0,0,0.26458333,0.11339667,-0.24047552)">
      <path
         style="fill:#fcfcfc"
         d="m 0,72 0,-72 251,0 251,0 0,72 0,72 -251,0 -251,0 0,-72 z"
         id="path3354"
         inkscape:connector-curvature="0" />
      <path
         style="fill:#f1ac94"
         d="M 50.931614,106.04325 C 29.331481,102.14016 14.583464,78.695988 20.394532,57.5 26.972037,33.508418 53.529431,21.48762 76,32.331037 c 7.910777,3.817431 14.495057,10.306339 18.5,18.232031 2.791701,5.524713 3,6.700695 3,16.936932 0,10.236237 -0.208299,11.412219 -3,16.936932 C 86.447297,100.37305 68.582193,109.23266 50.931614,106.04325 Z M 64.182369,90.5 c 1.634095,-1.375 4.01341,-2.5 5.287367,-2.5 1.273958,0 2.575308,-0.675 2.89189,-1.5 C 72.807595,85.337823 72.126323,85 69.336649,85 67.35633,85 64.220453,84.063298 62.368034,82.918441 L 59,80.836881 55.631966,82.918441 C 53.779547,84.063298 50.592047,85 48.548633,85 c -4.605362,0 -4.365274,2.148727 0.347792,3.112652 1.785793,0.365234 4.132178,1.614301 5.21419,2.775705 2.621921,2.814301 6.440601,2.667057 10.071754,-0.388357 z M 49.660942,80.500199 c 2.288518,-0.355246 4.913352,-1.477306 5.832964,-2.493466 1.569783,-1.73459 1.549423,-1.913176 -0.332965,-2.9206 C 51.126321,72.92687 50,70.943507 50,65.998122 c 0,-4.254502 -0.275768,-4.898776 -2.216582,-5.178571 -1.21912,-0.175753 -2.90662,-1.568347 -3.75,-3.094653 C 42.672448,55.261883 42.66869,54.839039 44,53.964946 c 0.825,-0.541667 2.625,-0.720311 4,-0.396987 4.520989,1.063088 5.888751,3.211702 6.205254,9.747816 L 54.5,69.402562 l 4.184957,0.101446 c 4.773807,0.115721 5.2784,-0.722355 5.301388,-8.805035 0.01288,-4.528349 0.210615,-4.883322 3.481536,-6.25 3.988597,-1.666542 4.556931,-1.719758 6.333289,-0.593019 2.167604,1.374907 -0.626749,6.159162 -3.990312,6.831874 C 67.182601,61.21348 67,61.572554 67,66.21523 c 0,4.265265 -0.42292,5.336335 -3,7.597684 -1.65,1.44785 -3,3.005209 -3,3.460797 0,1.401353 6.72483,3.727357 10.717881,3.707134 3.595064,-0.01821 3.971569,-0.343091 7.612668,-6.568902 2.106802,-3.602361 3.57733,-7.209624 3.26784,-8.016141 C 81.472098,63.460734 71.72867,47.480009 70.629705,46.765313 68.643124,45.473369 48.5398,45.881017 46.727185,47.25 44.741565,48.749646 35,65.521716 35,67.440715 c 0,0.742106 1.6875,4.312804 3.75,7.934886 2.495325,4.382192 4.25187,6.449244 5.25,6.178051 0.825,-0.224153 3.372424,-0.698207 5.660942,-1.053453 z M 376.3963,101.5818 c -9.403,-2.943016 -17.81636,-11.308957 -20.99386,-20.875538 -2.21182,-6.659163 -1.49079,-16.826587 1.65396,-23.322766 9.50577,-19.636307 35.43269,-24.518668 50.7525,-9.557328 9.50622,9.283782 12.67671,22.611082 8.20036,34.470646 -5.88724,15.597562 -23.69513,24.267066 -39.61296,19.284986 z m 21.46641,-11.300344 c 2.7307,-1.688261 5.80816,-4.813689 7.61085,-7.729472 C 408.04882,78.38661 408.5,76.664435 408.5,71 c 0,-5.664435 -0.45118,-7.38661 -3.02644,-11.551984 -1.87587,-3.034149 -4.88743,-6.04571 -7.92158,-7.92158 C 393.38661,48.951182 391.66444,48.5 386,48.5 c -5.66444,0 -7.38661,0.451182 -11.55198,3.026436 -3.03415,1.87587 -6.04571,4.887431 -7.92158,7.92158 -2.5658,4.150078 -3.02644,5.896414 -3.02644,11.473564 0,5.377943 0.50254,7.433309 2.75386,11.263073 6.67979,11.363159 20.57043,14.921333 31.60885,8.096803 z M 470.35,101.33142 C 469.3325,100.30371 461.11882,90.583707 452.09737,79.731424 443.07592,68.879141 435.32255,60 434.86766,60 c -0.4549,0 -0.94871,9.3375 -1.09737,20.75 L 433.5,101.5 l -3,0 -3,0 -0.26445,-30.75 c -0.24787,-28.821882 -0.15382,-30.748628 1.5,-30.728117 1.06307,0.01318 8.67958,8.360846 19.16067,21 C 457.46414,72.559847 465.66769,82 466.12633,82 c 0.45864,0 0.95534,-9.5625 1.10378,-21.25 L 467.5,39.5 l 3,0 3,0 0.26472,30.93528 c 0.15199,17.761338 -0.12482,31.32482 -0.65,31.85 -0.55296,0.55296 -1.64637,0.17572 -2.76472,-0.95386 z m -332.09869,-0.64086 c -2.40848,-3.204152 -26.41607,-57.818827 -25.94998,-59.033426 0.7098,-1.849701 5.55898,-3.017958 7.12662,-1.716932 0.68015,0.564476 5.44506,10.258853 10.58868,21.543059 C 135.16026,72.767467 139.658,82 140.01161,82 c 0.82911,0 9.99204,-19.08246 9.98996,-20.804813 C 150.00071,60.47754 148.65,56.717921 147,52.840478 143.33102,44.2185 143.24588,42.237215 146.49132,41.003302 c 3.56031,-1.35363 5.01729,-0.454732 6.97638,4.304136 L 155.19365,49.5 156.6661,46 c 0.80984,-1.925 2.1168,-3.999996 2.90435,-4.611103 1.79593,-1.393572 6.4182,-0.582058 7.12132,1.250263 0.29012,0.75603 -0.87426,4.859004 -2.58752,9.11772 -1.71325,4.258716 -3.11258,8.54214 -3.10963,9.518721 C 161.00175,63.630239 169.87165,81 171.06692,81 171.58011,81 172,80.595142 172,80.100316 c 0,-2.237718 18.3609,-40.024829 19.69742,-40.5377 2.33552,-0.896221 6.85097,1.739094 6.49431,3.790219 C 197.43351,47.713392 172.18285,101.5 170.89397,101.5 c -0.79954,0 -4.43921,-6.183264 -8.53517,-14.5 l -7.1412,-14.5 -6.8588,14.233088 c -3.77234,7.828198 -7.3884,14.438952 -8.03569,14.690562 -0.64728,0.25161 -1.5796,-0.0783 -2.0718,-0.73309 z m 68.21014,0.0696 c -0.27083,-0.70577 -0.37295,-14.553019 -0.22693,-30.771671 L 206.5,40.5 l 18.5,0 18.5,0 0,4 0,4 -14,0.5 -14,0.5 0,5.5 0,5.5 9.24033,0.287398 c 8.80181,0.273758 9.26881,0.400844 9.8403,2.677828 0.32998,1.314737 0.30926,3.306353 -0.0461,4.425814 -0.57864,1.82314 -1.60475,2.065288 -9.84029,2.322171 L 215.5,70.5 l 0,11 0,11 15,0.5 15,0.5 0,4 0,4 -19.27307,0.27167 c -14.96124,0.2109 -19.38323,-0.0154 -19.76548,-1.01154 z m 46.00136,0.004 c -0.26821,-0.69892 -0.36956,-18.144175 -0.22523,-38.767222 L 252.5,24.5 l 4,0 4,0 0.5,34 0.5,34 21,0.5 21,0.5 0,4 0,4 -25.27478,0.26722 c -19.71463,0.20844 -25.38205,-0.0123 -25.76241,-1.00355 z m 69.07179,0.0472 C 321.28747,100.08988 320.93862,94.1 320.75937,87.5 l -0.3259,-12 -9.21673,-15.850366 C 306.14753,50.931933 302,43.185266 302,42.434818 302,40.84004 305.06441,39 307.72035,39 c 1.3273,0 3.99142,3.737947 9.40548,13.196577 4.1545,7.258118 7.96325,13.319515 8.4639,13.469772 0.50065,0.150258 4.30494,-5.675702 8.45398,-12.946577 5.77679,-10.123386 8.07336,-13.296308 9.80504,-13.546536 2.61844,-0.378365 5.15125,1.391098 5.15125,3.598743 0,0.839899 -4.1625,8.759934 -9.25,17.600077 L 330.5,76.445044 330,88.972522 329.5,101.5 l -3.75804,0.31084 c -2.43538,0.20145 -3.91618,-0.15051 -4.20736,-1 z"
         id="path3352"
         inkscape:connector-curvature="0" />
      <path
         style="fill:#a3a3a3"
         d="M 52.398766,104.9914 C 42.149966,103.51129 30.983979,95.74803 25.38727,86.211391 16.611692,71.258049 19.028331,53.869353 31.689856,40.861732 40.128202,32.192728 51.526887,28.485919 64.898158,30.062519 77.527031,31.551583 89.538399,41.176271 94.477032,53.764017 98.15944,63.149856 97.857429,74.538946 93.698478,83.123988 85.959151,99.099756 70.024479,107.53686 52.398766,104.9914 Z M 63.404862,92.5 C 65.431038,91.125 67.89909,90 68.889421,90 69.879753,90 71.35516,89.2125 72.168102,88.25 74.759025,85.182424 84,69.027226 84,67.565317 84,65.88118 73.164561,46.823033 71.596449,45.749063 c -0.603047,-0.413016 -6.700574,-0.638016 -13.550059,-0.5 L 45.592779,45.5 l -5.909152,10 c -3.250034,5.5 -5.908295,10.9 -5.907248,12 0.0022,2.276971 9.683207,19.351283 12.048629,21.25 0.856488,0.6875 2.418783,1.25 3.471766,1.25 1.052983,0 3.251501,1.125 4.885595,2.5 1.634095,1.375 3.548759,2.5 4.254809,2.5 0.706051,0 2.941508,-1.125 4.967684,-2.5 z M 46,83 c -1.090049,-0.704444 -0.270147,-0.969374 3,-0.969374 3.270147,0 4.090049,0.26493 3,0.969374 -0.825,0.533156 -2.175,0.969374 -3,0.969374 -0.825,0 -2.175,-0.436218 -3,-0.969374 z m 20.5,0 C 63.702256,82.288095 63.790507,82.228653 67.809017,82.118315 70.453303,82.045709 71.879265,82.386337 71.5,83 c -0.678298,1.097509 -0.686857,1.097509 -5,0 z m -8.836333,-4.565913 c 0.371692,-0.968614 -0.577704,-2.780443 -2.488994,-4.75 L 52.084783,70.5 l 5.957608,0.338821 c 6.230716,0.354353 7.392872,1.322682 3.857953,3.214513 -1.501954,0.803822 -1.968429,1.81017 -1.638672,3.535184 C 60.613039,79.426575 60.287515,80 58.892713,80 57.642705,80 57.253203,79.503739 57.663667,78.434087 Z M 49.5,60.224076 c -3.212629,-0.691601 -5.666884,-3.318067 -4.459701,-4.772633 1.311184,-1.57988 4.321661,-0.81395 6.571307,1.671881 1.988023,2.19674 0.926936,3.754875 -2.111606,3.100752 z M 65,58.535184 C 65,56.802296 68.025385,55 70.934259,55 c 2.611102,0 2.697051,2.591766 0.131482,3.964816 C 68.258025,60.467461 65,60.236697 65,58.535184 Z M 376.3963,101.5818 c -9.403,-2.943016 -17.81636,-11.308957 -20.99386,-20.875538 -2.21182,-6.659163 -1.49079,-16.826587 1.65396,-23.322766 9.50577,-19.636307 35.43269,-24.518668 50.7525,-9.557328 9.50622,9.283782 12.67671,22.611082 8.20036,34.470646 -5.88724,15.597562 -23.69513,24.267066 -39.61296,19.284986 z m 21.46641,-11.300344 c 2.7307,-1.688261 5.80816,-4.813689 7.61085,-7.729472 C 408.04882,78.38661 408.5,76.664435 408.5,71 c 0,-5.664435 -0.45118,-7.38661 -3.02644,-11.551984 -1.87587,-3.034149 -4.88743,-6.04571 -7.92158,-7.92158 C 393.38661,48.951182 391.66444,48.5 386,48.5 c -5.66444,0 -7.38661,0.451182 -11.55198,3.026436 -3.03415,1.87587 -6.04571,4.887431 -7.92158,7.92158 -2.5658,4.150078 -3.02644,5.896414 -3.02644,11.473564 0,5.377943 0.50254,7.433309 2.75386,11.263073 6.67979,11.363159 20.57043,14.921333 31.60885,8.096803 z M 470.35,101.33142 C 469.3325,100.30371 461.11882,90.583707 452.09737,79.731424 443.07592,68.879141 435.32255,60 434.86766,60 c -0.4549,0 -0.94871,9.3375 -1.09737,20.75 L 433.5,101.5 l -3,0 -3,0 -0.26445,-30.75 c -0.24787,-28.821882 -0.15382,-30.748628 1.5,-30.728117 1.06307,0.01318 8.67958,8.360846 19.16067,21 C 457.46414,72.559847 465.66769,82 466.12633,82 c 0.45864,0 0.95534,-9.5625 1.10378,-21.25 L 467.5,39.5 l 3,0 3,0 0.26472,30.93528 c 0.15199,17.761338 -0.12482,31.32482 -0.65,31.85 -0.55296,0.55296 -1.64637,0.17572 -2.76472,-0.95386 z m -332.09869,-0.64086 c -2.40848,-3.204152 -26.41607,-57.818827 -25.94998,-59.033426 0.7098,-1.849701 5.55898,-3.017958 7.12662,-1.716932 0.68015,0.564476 5.44506,10.258853 10.58868,21.543059 C 135.16026,72.767467 139.658,82 140.01161,82 c 0.82911,0 9.99204,-19.08246 9.98996,-20.804813 C 150.00071,60.47754 148.65,56.717921 147,52.840478 143.33102,44.2185 143.24588,42.237215 146.49132,41.003302 c 3.56031,-1.35363 5.01729,-0.454732 6.97638,4.304136 L 155.19365,49.5 156.6661,46 c 0.80984,-1.925 2.1168,-3.999996 2.90435,-4.611103 1.79593,-1.393572 6.4182,-0.582058 7.12132,1.250263 0.29012,0.75603 -0.87426,4.859004 -2.58752,9.11772 -1.71325,4.258716 -3.11258,8.54214 -3.10963,9.518721 C 161.00175,63.630239 169.87165,81 171.06692,81 171.58011,81 172,80.595142 172,80.100316 c 0,-2.237718 18.3609,-40.024829 19.69742,-40.5377 2.33552,-0.896221 6.85097,1.739094 6.49431,3.790219 C 197.43351,47.713392 172.18285,101.5 170.89397,101.5 c -0.79954,0 -4.43921,-6.183264 -8.53517,-14.5 l -7.1412,-14.5 -6.8588,14.233088 c -3.77234,7.828198 -7.3884,14.438952 -8.03569,14.690562 -0.64728,0.25161 -1.5796,-0.0783 -2.0718,-0.73309 z m 68.21014,0.0696 c -0.27083,-0.70577 -0.37295,-14.553019 -0.22693,-30.771671 L 206.5,40.5 l 18.5,0 18.5,0 0,4 0,4 -14,0.5 -14,0.5 0,5.5 0,5.5 9.24033,0.287398 c 8.80181,0.273758 9.26881,0.400844 9.8403,2.677828 0.32998,1.314737 0.30926,3.306353 -0.0461,4.425814 -0.57864,1.82314 -1.60475,2.065288 -9.84029,2.322171 L 215.5,70.5 l 0,11 0,11 15,0.5 15,0.5 0,4 0,4 -19.27307,0.27167 c -14.96124,0.2109 -19.38323,-0.0154 -19.76548,-1.01154 z m 46.00136,0.004 c -0.26821,-0.69892 -0.36956,-18.144175 -0.22523,-38.767222 L 252.5,24.5 l 4,0 4,0 0.5,34 0.5,34 21,0.5 21,0.5 0,4 0,4 -25.27478,0.26722 c -19.71463,0.20844 -25.38205,-0.0123 -25.76241,-1.00355 z m 69.07179,0.0472 C 321.28747,100.08988 320.93862,94.1 320.75937,87.5 l -0.3259,-12 -9.21673,-15.850366 C 306.14753,50.931933 302,43.185266 302,42.434818 302,40.84004 305.06441,39 307.72035,39 c 1.3273,0 3.99142,3.737947 9.40548,13.196577 4.1545,7.258118 7.96325,13.319515 8.4639,13.469772 0.50065,0.150258 4.30494,-5.675702 8.45398,-12.946577 5.77679,-10.123386 8.07336,-13.296308 9.80504,-13.546536 2.61844,-0.378365 5.15125,1.391098 5.15125,3.598743 0,0.839899 -4.1625,8.759934 -9.25,17.600077 L 330.5,76.445044 330,88.972522 329.5,101.5 l -3.75804,0.31084 c -2.43538,0.20145 -3.91618,-0.15051 -4.20736,-1 z"
         id="path3350"
         inkscape:connector-curvature="0" />
      <path
         style="fill:#ef8d6a"
         d="M 52.398766,104.9914 C 42.149966,103.51129 30.983979,95.74803 25.38727,86.211391 16.611692,71.258049 19.028331,53.869353 31.689856,40.861732 40.128202,32.192728 51.526887,28.485919 64.898158,30.062519 77.527031,31.551583 89.538399,41.176271 94.477032,53.764017 98.15944,63.149856 97.857429,74.538946 93.698478,83.123988 85.959151,99.099756 70.024479,107.53686 52.398766,104.9914 Z M 63.404862,92.5 C 65.431038,91.125 67.89909,90 68.889421,90 69.879753,90 71.35516,89.2125 72.168102,88.25 74.759025,85.182424 84,69.027226 84,67.565317 84,65.88118 73.164561,46.823033 71.596449,45.749063 c -0.603047,-0.413016 -6.700574,-0.638016 -13.550059,-0.5 L 45.592779,45.5 l -5.909152,10 c -3.250034,5.5 -5.908295,10.9 -5.907248,12 0.0022,2.276971 9.683207,19.351283 12.048629,21.25 0.856488,0.6875 2.418783,1.25 3.471766,1.25 1.052983,0 3.251501,1.125 4.885595,2.5 1.634095,1.375 3.548759,2.5 4.254809,2.5 0.706051,0 2.941508,-1.125 4.967684,-2.5 z M 46,83 c -1.090049,-0.704444 -0.270147,-0.969374 3,-0.969374 3.270147,0 4.090049,0.26493 3,0.969374 -0.825,0.533156 -2.175,0.969374 -3,0.969374 -0.825,0 -2.175,-0.436218 -3,-0.969374 z m 20.5,0 C 63.702256,82.288095 63.790507,82.228653 67.809017,82.118315 70.453303,82.045709 71.879265,82.386337 71.5,83 c -0.678298,1.097509 -0.686857,1.097509 -5,0 z m -8.836333,-4.565913 c 0.371692,-0.968614 -0.577704,-2.780443 -2.488994,-4.75 L 52.084783,70.5 l 5.957608,0.338821 c 6.230716,0.354353 7.392872,1.322682 3.857953,3.214513 -1.501954,0.803822 -1.968429,1.81017 -1.638672,3.535184 C 60.613039,79.426575 60.287515,80 58.892713,80 57.642705,80 57.253203,79.503739 57.663667,78.434087 Z M 49.5,60.224076 c -3.212629,-0.691601 -5.666884,-3.318067 -4.459701,-4.772633 1.311184,-1.57988 4.321661,-0.81395 6.571307,1.671881 1.988023,2.19674 0.926936,3.754875 -2.111606,3.100752 z M 65,58.535184 C 65,56.802296 68.025385,55 70.934259,55 c 2.611102,0 2.697051,2.591766 0.131482,3.964816 C 68.258025,60.467461 65,60.236697 65,58.535184 Z m 312.5,42.132846 c -8.59317,-2.833313 -15.27489,-8.406352 -19.30835,-16.104575 -3.53717,-6.751008 -3.78628,-18.614266 -0.53937,-25.68586 3.04015,-6.621272 8.65883,-12.391872 15.18718,-15.597813 4.77449,-2.344661 6.91278,-2.776756 13.66054,-2.760449 9.53441,0.02304 15.79524,2.744422 21.92613,9.530579 5.99203,6.63246 8.04436,12.106819 8.04161,21.450088 -0.003,9.131167 -2.03294,14.213385 -8.32376,20.836398 -7.61116,8.013062 -20.76418,11.589172 -30.64398,8.331632 z m 15.88398,-6.884146 C 401.978,91.244702 410,80.24493 410,71 410,58.972802 398.36809,47.039328 386.61602,47.009769 373.6271,46.977099 362,58.308614 362,71 c 0,6.285219 2.28807,11.355528 7.46612,16.544728 7.01469,7.029805 14.57073,9.000854 23.91786,6.239156 z m -185.92265,5.975937 c -0.27131,-0.707009 -0.37359,-14.1047 -0.22731,-29.772646 L 207.5,41.5 l 17.5,0 17.5,0 0,3 0,3 -14,0.5 -14,0.5 0,6.5 0,6.5 9.19429,0.286789 c 7.86885,0.245445 9.27767,0.549493 9.77267,2.109122 1.33404,4.203169 -0.16593,5.016269 -9.81002,5.317795 L 214.5,69.5 l 0,12 0,12 15,0.5 15,0.5 0,3 0,3 -18.27269,0.27265 c -14.16438,0.21134 -18.38361,-0.0164 -18.76598,-1.012829 z m 46.0014,0.0036 c -0.26851,-0.699715 -0.36997,-17.69524 -0.22546,-37.767835 L 253.5,25.5 l 3,0 3,0 0.5,34 0.5,34 21,0.5 21,0.5 0,3 0,3 -24.27454,0.26783 c -18.92042,0.20876 -24.38222,-0.0128 -24.76273,-1.004369 z m 69.24985,0.615779 C 322.32066,99.987326 322,94.471317 322,88.121446 l 0,-11.545221 -9.58693,-16.830903 c -7.81746,-13.724401 -9.36372,-17.099862 -8.37756,-18.288112 2.86258,-3.4492 4.73739,-1.644475 12.52979,12.061409 4.22726,7.43524 8.045,13.740531 8.48385,14.011758 1.01767,0.628954 3.09111,-2.414492 10.92119,-16.030377 3.47916,-6.05 6.46318,-11.166543 6.63114,-11.370096 0.75525,-0.915307 5.39852,1.053273 5.39852,2.288782 0,0.759321 -4.15807,8.513247 -9.24016,17.230948 L 329.51968,75.5 329.00984,88 c -0.5092,12.48424 -0.51304,12.50037 -3.04726,12.79591 -1.39559,0.16275 -2.85809,-0.0248 -3.25,-0.41667 z m 105.98866,-0.0113 c -1.02394,-1.023929 -0.86006,-58.151712 0.16864,-58.78748 0.47843,-0.295687 9.10564,9.36555 19.17156,21.469416 10.06593,12.103866 18.66525,21.643473 19.1096,21.199126 0.44434,-0.444347 0.92964,-10.469641 1.07843,-22.278433 C 468.49046,41.256843 468.5705,40.5 470.5,40.5 c 1.95009,0 2.0066,0.754888 2.26466,30.25 0.14557,16.6375 -0.12537,30.25 -0.60207,30.25 -0.47671,0 -9.11052,-9.912795 -19.18624,-22.028432 C 442.90064,66.85593 434.2935,57.306497 433.84939,57.750607 c -0.44411,0.444109 -0.9294,10.238535 -1.07843,21.765391 -0.23254,17.986391 -0.49055,21.000112 -1.81972,21.255532 -0.85182,0.16368 -1.86432,-0.0179 -2.25,-0.40363 z M 136.5482,94.75 c -1.28796,-2.8875 -7.13189,-15.783799 -12.98653,-28.658441 -6.53126,-14.362592 -10.28686,-23.766367 -9.71856,-24.334665 0.50942,-0.509423 1.97283,-0.775625 3.25202,-0.591559 2.33959,0.336648 4.02242,3.534982 18.81112,35.751757 l 3.40473,7.417092 1.99612,-2.417092 C 143.89827,78.779464 151,63.517499 151,61.086573 151,60.054138 149.61971,55.965778 147.93268,52.001328 144.57994,44.122489 144.67063,42 148.36004,42 c 1.88441,0 2.77089,0.869963 3.98925,3.914946 2.24381,5.607817 3.2757,5.72125 5.53723,0.608689 C 159.51606,42.839784 160.36791,42 162.47515,42 c 1.42319,0 2.80385,0.563477 3.06812,1.252171 0.26428,0.688694 -1.11813,5.042677 -3.07201,9.675518 l -3.55252,8.423347 5.43876,10.540525 c 2.99131,5.797288 5.83006,10.670958 6.30831,10.830376 0.47826,0.159419 5.20149,-9.0503 10.49608,-20.466042 9.30504,-20.062746 9.73024,-20.76636 12.73231,-21.069253 C 196.29019,40.9449 197,41.267812 197,42.599548 197,45.121854 171.95803,100 170.80705,100 c -0.53597,0 -3.96637,-6.3 -7.6231,-14 -3.65673,-7.7 -7.1194,-14 -7.69481,-14 -0.57541,0 -4.17052,6.3 -7.98914,14 -3.81862,7.7 -7.31804,14 -7.7765,14 -0.45846,0 -1.88734,-2.3625 -3.1753,-5.25 z"
         id="path3348"
         inkscape:connector-curvature="0" />
      <path
         style="fill:#ee754a"
         d="M 51.5,104.35701 C 42.983522,103.05842 31.242209,94.68218 26.43134,86.473053 17.172988,70.67487 19.878715,52.623082 33.35048,40.310648 39.789672,34.425589 43.857686,32.328126 51.613105,30.894459 68.382435,27.794479 84.345769,35.614424 92.352621,50.851492 95.812014,57.434729 96,58.286035 96,67.368898 c 0,8.246944 -0.362217,10.341446 -2.609087,15.086906 -3.768196,7.958551 -9.306669,13.726706 -17.124889,17.835066 -5.559433,2.9214 -8.207493,3.6725 -14.294742,4.0546 C 57.862077,104.60341 53.15,104.6086 51.5,104.35701 Z M 64.405539,92.498779 C 66.003586,91.12445 68.296341,90 69.500552,90 c 2.790435,0 3.955873,-1.435162 10.459054,-12.879645 l 5.329862,-9.379645 -2.70753,-5.120355 C 76.061962,50.29008 73.053727,45.539837 71.337155,44.863943 69.010238,43.947729 49.064499,43.912211 46.819762,44.820285 45.397998,45.395438 40,52.258375 40,53.490833 c 0,0.221108 -1.575,3.089343 -3.5,6.373855 -1.925,3.284512 -3.5,6.718525 -3.5,7.631138 0,0.912614 2.741372,6.349395 6.091938,12.081736 C 44.264839,88.427658 45.563097,90 47.697582,90 c 1.382538,0 3.850693,1.125 5.484787,2.5 3.773886,3.175516 7.529787,3.175107 11.22317,-0.0012 z M 56.131121,73.657991 C 54.739435,71.981112 55.653565,71 58.60765,71 c 2.770561,0 4.162375,1.898175 2.270465,3.096491 -1.96489,1.244541 -3.465215,1.105949 -4.746994,-0.4385 z m -7.778794,-14.6513 C 45.986076,58.051964 44.482575,56.184091 45.3678,55.298867 46.337981,54.328686 52,57.16512 52,58.62132 c 0,1.55817 -0.58719,1.620205 -3.647673,0.385371 z M 66,57.978561 c 0,-1.260405 4.774378,-3.537517 5.627765,-2.68413 0.340622,0.340622 0.352843,1.31372 0.02716,2.162441 C 71.003472,59.154528 66,59.616118 66,57.978561 Z m 311.5,42.689469 c -8.59317,-2.833313 -15.27489,-8.406352 -19.30835,-16.104575 -3.53717,-6.751008 -3.78628,-18.614266 -0.53937,-25.68586 3.04015,-6.621272 8.65883,-12.391872 15.18718,-15.597813 4.77449,-2.344661 6.91278,-2.776756 13.66054,-2.760449 9.53441,0.02304 15.79524,2.744422 21.92613,9.530579 5.99203,6.63246 8.04436,12.106819 8.04161,21.450088 -0.003,9.131167 -2.03294,14.213385 -8.32376,20.836398 -7.61116,8.013062 -20.76418,11.589172 -30.64398,8.331632 z m 15.88398,-6.884146 C 401.978,91.244702 410,80.24493 410,71 410,58.972802 398.36809,47.039328 386.61602,47.009769 373.6271,46.977099 362,58.308614 362,71 c 0,6.285219 2.28807,11.355528 7.46612,16.544728 7.01469,7.029805 14.57073,9.000854 23.91786,6.239156 z m -185.92265,5.975937 c -0.27131,-0.707009 -0.37359,-14.1047 -0.22731,-29.772646 L 207.5,41.5 l 17.5,0 17.5,0 0,3 0,3 -14,0.5 -14,0.5 0,6.5 0,6.5 9.19429,0.286789 c 7.86885,0.245445 9.27767,0.549493 9.77267,2.109122 1.33404,4.203169 -0.16593,5.016269 -9.81002,5.317795 L 214.5,69.5 l 0,12 0,12 15,0.5 15,0.5 0,3 0,3 -18.27269,0.27265 c -14.16438,0.21134 -18.38361,-0.0164 -18.76598,-1.012829 z m 46.0014,0.0036 c -0.26851,-0.699715 -0.36997,-17.69524 -0.22546,-37.767835 L 253.5,25.5 l 3,0 3,0 0.5,34 0.5,34 21,0.5 21,0.5 0,3 0,3 -24.27454,0.26783 c -18.92042,0.20876 -24.38222,-0.0128 -24.76273,-1.004369 z m 69.24985,0.615779 C 322.32066,99.987326 322,94.471317 322,88.121446 l 0,-11.545221 -9.58693,-16.830903 c -7.81746,-13.724401 -9.36372,-17.099862 -8.37756,-18.288112 2.86258,-3.4492 4.73739,-1.644475 12.52979,12.061409 4.22726,7.43524 8.045,13.740531 8.48385,14.011758 1.01767,0.628954 3.09111,-2.414492 10.92119,-16.030377 3.47916,-6.05 6.46318,-11.166543 6.63114,-11.370096 0.75525,-0.915307 5.39852,1.053273 5.39852,2.288782 0,0.759321 -4.15807,8.513247 -9.24016,17.230948 L 329.51968,75.5 329.00984,88 c -0.5092,12.48424 -0.51304,12.50037 -3.04726,12.79591 -1.39559,0.16275 -2.85809,-0.0248 -3.25,-0.41667 z m 105.98866,-0.0113 c -1.02394,-1.023929 -0.86006,-58.151712 0.16864,-58.78748 0.47843,-0.295687 9.10564,9.36555 19.17156,21.469416 10.06593,12.103866 18.66525,21.643473 19.1096,21.199126 0.44434,-0.444347 0.92964,-10.469641 1.07843,-22.278433 C 468.49046,41.256843 468.5705,40.5 470.5,40.5 c 1.95009,0 2.0066,0.754888 2.26466,30.25 0.14557,16.6375 -0.12537,30.25 -0.60207,30.25 -0.47671,0 -9.11052,-9.912795 -19.18624,-22.028432 C 442.90064,66.85593 434.2935,57.306497 433.84939,57.750607 c -0.44411,0.444109 -0.9294,10.238535 -1.07843,21.765391 -0.23254,17.986391 -0.49055,21.000112 -1.81972,21.255532 -0.85182,0.16368 -1.86432,-0.0179 -2.25,-0.40363 z M 136.5482,94.75 c -1.28796,-2.8875 -7.13189,-15.783799 -12.98653,-28.658441 -6.53126,-14.362592 -10.28686,-23.766367 -9.71856,-24.334665 0.50942,-0.509423 1.97283,-0.775625 3.25202,-0.591559 2.33959,0.336648 4.02242,3.534982 18.81112,35.751757 l 3.40473,7.417092 1.99612,-2.417092 C 143.89827,78.779464 151,63.517499 151,61.086573 151,60.054138 149.61971,55.965778 147.93268,52.001328 144.57994,44.122489 144.67063,42 148.36004,42 c 1.88441,0 2.77089,0.869963 3.98925,3.914946 2.24381,5.607817 3.2757,5.72125 5.53723,0.608689 C 159.51606,42.839784 160.36791,42 162.47515,42 c 1.42319,0 2.80385,0.563477 3.06812,1.252171 0.26428,0.688694 -1.11813,5.042677 -3.07201,9.675518 l -3.55252,8.423347 5.43876,10.540525 c 2.99131,5.797288 5.83006,10.670958 6.30831,10.830376 0.47826,0.159419 5.20149,-9.0503 10.49608,-20.466042 9.30504,-20.062746 9.73024,-20.76636 12.73231,-21.069253 C 196.29019,40.9449 197,41.267812 197,42.599548 197,45.121854 171.95803,100 170.80705,100 c -0.53597,0 -3.96637,-6.3 -7.6231,-14 -3.65673,-7.7 -7.1194,-14 -7.69481,-14 -0.57541,0 -4.17052,6.3 -7.98914,14 -3.81862,7.7 -7.31804,14 -7.7765,14 -0.45846,0 -1.88734,-2.3625 -3.1753,-5.25 z"
         id="path3346"
         inkscape:connector-curvature="0" />
      <path
         style="fill:#ee6331"
         d="M 50,103.1253 C 41.483677,101.24137 30.684939,93.095933 26.693015,85.544948 18.361326,69.785015 21.199412,52.198737 33.920171,40.761682 c 8.30316,-7.465255 12.89354,-9.187006 24.600856,-9.227242 9.342938,-0.03211 10.472794,0.187963 16.69736,3.252308 C 83.04209,38.638344 89.134174,44.966426 92.752401,53 c 2.05259,4.557381 2.474301,7.045071 2.460601,14.515191 -0.01428,7.788528 -0.400394,9.829523 -2.837656,15 C 86.453198,95.078608 75.086141,102.7343 61.244933,103.48147 56.98522,103.71141 51.925,103.55114 50,103.1253 Z M 64.588887,93.5 c 1.802718,-1.375 4.407245,-2.5 5.787839,-2.5 2.13557,0 3.355935,-1.493745 8.177604,-10.009512 3.117089,-5.505231 6.067537,-10.256789 6.556552,-10.559017 C 86.925925,69.309713 85.781326,66.228886 79.563492,55.5 l -6.374955,-11 -14.307745,0 -14.307745,0 -6.255451,10.5 c -3.440497,5.775 -6.25545,11.4 -6.25545,12.5 0,1.1 2.811821,6.725 6.248491,12.5 5.477468,9.204368 6.615024,10.538526 9.218927,10.812217 C 49.163304,90.983936 50.95,91.691602 51.5,92.384809 54.78319,96.52286 60.038653,96.970633 64.588887,93.5 Z M 56.5,73 c -0.351909,-0.569401 0.509288,-1 2,-1 1.490712,0 2.351909,0.430599 2,1 -0.339919,0.55 -1.239919,1 -2,1 -0.760081,0 -1.660081,-0.45 -2,-1 z M 47.02896,58.03906 C 46.219889,57.527387 45.848476,56.81819 46.2036,56.463067 47.077948,55.588718 51,56.900583 51,58.067388 c 0,1.189884 -2.068096,1.175131 -3.97104,-0.02833 z M 67,58.106989 c 0,-0.961833 2.431998,-2.126905 4.331787,-2.075186 0.642517,0.01749 0.294705,0.692492 -0.772917,1.5 C 68.355281,59.198514 67,59.417555 67,58.106989 Z m 310.5,42.561041 c -8.59317,-2.833313 -15.27489,-8.406352 -19.30835,-16.104575 -3.53717,-6.751008 -3.78628,-18.614266 -0.53937,-25.68586 3.04015,-6.621272 8.65883,-12.391872 15.18718,-15.597813 4.77449,-2.344661 6.91278,-2.776756 13.66054,-2.760449 9.53441,0.02304 15.79524,2.744422 21.92613,9.530579 5.99203,6.63246 8.04436,12.106819 8.04161,21.450088 -0.003,9.131167 -2.03294,14.213385 -8.32376,20.836398 -7.61116,8.013062 -20.76418,11.589172 -30.64398,8.331632 z m 15.88398,-6.884146 C 401.978,91.244702 410,80.24493 410,71 410,58.972802 398.36809,47.039328 386.61602,47.009769 373.6271,46.977099 362,58.308614 362,71 c 0,6.285219 2.28807,11.355528 7.46612,16.544728 7.01469,7.029805 14.57073,9.000854 23.91786,6.239156 z m -185.92265,5.975937 c -0.27131,-0.707009 -0.37359,-14.1047 -0.22731,-29.772646 L 207.5,41.5 l 17.5,0 17.5,0 0,3 0,3 -14,0.5 -14,0.5 0,6.5 0,6.5 9.19429,0.286789 c 7.86885,0.245445 9.27767,0.549493 9.77267,2.109122 1.33404,4.203169 -0.16593,5.016269 -9.81002,5.317795 L 214.5,69.5 l 0,12 0,12 15,0.5 15,0.5 0,3 0,3 -18.27269,0.27265 c -14.16438,0.21134 -18.38361,-0.0164 -18.76598,-1.012829 z m 46.0014,0.0036 c -0.26851,-0.699715 -0.36997,-17.69524 -0.22546,-37.767835 L 253.5,25.5 l 3,0 3,0 0.5,34 0.5,34 21,0.5 21,0.5 0,3 0,3 -24.27454,0.26783 c -18.92042,0.20876 -24.38222,-0.0128 -24.76273,-1.004369 z m 69.24985,0.615779 C 322.32066,99.987326 322,94.471317 322,88.121446 l 0,-11.545221 -9.58693,-16.830903 c -7.81746,-13.724401 -9.36372,-17.099862 -8.37756,-18.288112 2.86258,-3.4492 4.73739,-1.644475 12.52979,12.061409 4.22726,7.43524 8.045,13.740531 8.48385,14.011758 1.01767,0.628954 3.09111,-2.414492 10.92119,-16.030377 3.47916,-6.05 6.46318,-11.166543 6.63114,-11.370096 0.75525,-0.915307 5.39852,1.053273 5.39852,2.288782 0,0.759321 -4.15807,8.513247 -9.24016,17.230948 L 329.51968,75.5 329.00984,88 c -0.5092,12.48424 -0.51304,12.50037 -3.04726,12.79591 -1.39559,0.16275 -2.85809,-0.0248 -3.25,-0.41667 z m 105.98866,-0.0113 c -1.02394,-1.023929 -0.86006,-58.151712 0.16864,-58.78748 0.47843,-0.295687 9.10564,9.36555 19.17156,21.469416 10.06593,12.103866 18.66525,21.643473 19.1096,21.199126 0.44434,-0.444347 0.92964,-10.469641 1.07843,-22.278433 C 468.49046,41.256843 468.5705,40.5 470.5,40.5 c 1.95009,0 2.0066,0.754888 2.26466,30.25 0.14557,16.6375 -0.12537,30.25 -0.60207,30.25 -0.47671,0 -9.11052,-9.912795 -19.18624,-22.028432 C 442.90064,66.85593 434.2935,57.306497 433.84939,57.750607 c -0.44411,0.444109 -0.9294,10.238535 -1.07843,21.765391 -0.23254,17.986391 -0.49055,21.000112 -1.81972,21.255532 -0.85182,0.16368 -1.86432,-0.0179 -2.25,-0.40363 z M 136.5482,94.75 c -1.28796,-2.8875 -7.13189,-15.783799 -12.98653,-28.658441 -6.53126,-14.362592 -10.28686,-23.766367 -9.71856,-24.334665 0.50942,-0.509423 1.97283,-0.775625 3.25202,-0.591559 2.33959,0.336648 4.02242,3.534982 18.81112,35.751757 l 3.40473,7.417092 1.99612,-2.417092 C 143.89827,78.779464 151,63.517499 151,61.086573 151,60.054138 149.61971,55.965778 147.93268,52.001328 144.57994,44.122489 144.67063,42 148.36004,42 c 1.88441,0 2.77089,0.869963 3.98925,3.914946 2.24381,5.607817 3.2757,5.72125 5.53723,0.608689 C 159.51606,42.839784 160.36791,42 162.47515,42 c 1.42319,0 2.80385,0.563477 3.06812,1.252171 0.26428,0.688694 -1.11813,5.042677 -3.07201,9.675518 l -3.55252,8.423347 5.43876,10.540525 c 2.99131,5.797288 5.83006,10.670958 6.30831,10.830376 0.47826,0.159419 5.20149,-9.0503 10.49608,-20.466042 9.30504,-20.062746 9.73024,-20.76636 12.73231,-21.069253 C 196.29019,40.9449 197,41.267812 197,42.599548 197,45.121854 171.95803,100 170.80705,100 c -0.53597,0 -3.96637,-6.3 -7.6231,-14 -3.65673,-7.7 -7.1194,-14 -7.69481,-14 -0.57541,0 -4.17052,6.3 -7.98914,14 -3.81862,7.7 -7.31804,14 -7.7765,14 -0.45846,0 -1.88734,-2.3625 -3.1753,-5.25 z"
         id="path3344"
         inkscape:connector-curvature="0" />
      <path
         style="fill:#5b5b5b"
         d="m 377.5,100.66803 c -8.59317,-2.833313 -15.27489,-8.406352 -19.30835,-16.104575 -3.53717,-6.751008 -3.78628,-18.614266 -0.53937,-25.68586 3.04015,-6.621272 8.65883,-12.391872 15.18718,-15.597813 4.77449,-2.344661 6.91278,-2.776756 13.66054,-2.760449 9.53441,0.02304 15.79524,2.744422 21.92613,9.530579 5.99203,6.63246 8.04436,12.106819 8.04161,21.450088 -0.003,9.131167 -2.03294,14.213385 -8.32376,20.836398 -7.61116,8.013062 -20.76418,11.589172 -30.64398,8.331632 z m 15.88398,-6.884146 C 401.978,91.244702 410,80.24493 410,71 410,58.972802 398.36809,47.039328 386.61602,47.009769 373.6271,46.977099 362,58.308614 362,71 c 0,6.285219 2.28807,11.355528 7.46612,16.544728 7.01469,7.029805 14.57073,9.000854 23.91786,6.239156 z m -185.92265,5.975937 c -0.27131,-0.707009 -0.37359,-14.1047 -0.22731,-29.772646 L 207.5,41.5 l 17.5,0 17.5,0 0,3 0,3 -14,0.5 -14,0.5 0,6.5 0,6.5 9.19429,0.286789 c 7.86885,0.245445 9.27767,0.549493 9.77267,2.109122 1.33404,4.203169 -0.16593,5.016269 -9.81002,5.317795 L 214.5,69.5 l 0,12 0,12 15,0.5 15,0.5 0,3 0,3 -18.27269,0.27265 c -14.16438,0.21134 -18.38361,-0.0164 -18.76598,-1.012829 z m 46.0014,0.0036 c -0.26851,-0.699715 -0.36997,-17.69524 -0.22546,-37.767835 L 253.5,25.5 l 3,0 3,0 0.5,34 0.5,34 21,0.5 21,0.5 0,3 0,3 -24.27454,0.26783 c -18.92042,0.20876 -24.38222,-0.0128 -24.76273,-1.004369 z m 69.24985,0.615779 C 322.32066,99.987326 322,94.471317 322,88.121446 l 0,-11.545221 -9.58693,-16.830903 c -7.81746,-13.724401 -9.36372,-17.099862 -8.37756,-18.288112 2.86258,-3.4492 4.73739,-1.644475 12.52979,12.061409 4.22726,7.43524 8.045,13.740531 8.48385,14.011758 1.01767,0.628954 3.09111,-2.414492 10.92119,-16.030377 3.47916,-6.05 6.46318,-11.166543 6.63114,-11.370096 0.75525,-0.915307 5.39852,1.053273 5.39852,2.288782 0,0.759321 -4.15807,8.513247 -9.24016,17.230948 L 329.51968,75.5 329.00984,88 c -0.5092,12.48424 -0.51304,12.50037 -3.04726,12.79591 -1.39559,0.16275 -2.85809,-0.0248 -3.25,-0.41667 z m 105.98866,-0.0113 c -1.02394,-1.023929 -0.86006,-58.151712 0.16864,-58.78748 0.47843,-0.295687 9.10564,9.36555 19.17156,21.469416 10.06593,12.103866 18.66525,21.643473 19.1096,21.199126 0.44434,-0.444347 0.92964,-10.469641 1.07843,-22.278433 C 468.49046,41.256843 468.5705,40.5 470.5,40.5 c 1.95009,0 2.0066,0.754888 2.26466,30.25 0.14557,16.6375 -0.12537,30.25 -0.60207,30.25 -0.47671,0 -9.11052,-9.912795 -19.18624,-22.028432 C 442.90064,66.85593 434.2935,57.306497 433.84939,57.750607 c -0.44411,0.444109 -0.9294,10.238535 -1.07843,21.765391 -0.23254,17.986391 -0.49055,21.000112 -1.81972,21.255532 -0.85182,0.16368 -1.86432,-0.0179 -2.25,-0.40363 z M 136.5482,94.75 c -1.28796,-2.8875 -7.13189,-15.783799 -12.98653,-28.658441 -6.53126,-14.362592 -10.28686,-23.766367 -9.71856,-24.334665 0.50942,-0.509423 1.97283,-0.775625 3.25202,-0.591559 2.33959,0.336648 4.02242,3.534982 18.81112,35.751757 l 3.40473,7.417092 1.99612,-2.417092 C 143.89827,78.779464 151,63.517499 151,61.086573 151,60.054138 149.61971,55.965778 147.93268,52.001328 144.57994,44.122489 144.67063,42 148.36004,42 c 1.88441,0 2.77089,0.869963 3.98925,3.914946 2.24381,5.607817 3.2757,5.72125 5.53723,0.608689 C 159.51606,42.839784 160.36791,42 162.47515,42 c 1.42319,0 2.80385,0.563477 3.06812,1.252171 0.26428,0.688694 -1.11813,5.042677 -3.07201,9.675518 l -3.55252,8.423347 5.43876,10.540525 c 2.99131,5.797288 5.83006,10.670958 6.30831,10.830376 0.47826,0.159419 5.20149,-9.0503 10.49608,-20.466042 9.30504,-20.062746 9.73024,-20.76636 12.73231,-21.069253 C 196.29019,40.9449 197,41.267812 197,42.599548 197,45.121854 171.95803,100 170.80705,100 c -0.53597,0 -3.96637,-6.3 -7.6231,-14 -3.65673,-7.7 -7.1194,-14 -7.69481,-14 -0.57541,0 -4.17052,6.3 -7.98914,14 -3.81862,7.7 -7.31804,14 -7.7765,14 -0.45846,0 -1.88734,-2.3625 -3.1753,-5.25 z"
         id="path3342"
         inkscape:connector-curvature="0" />
      <path
         style="fill:#0e0e0e"
         d="M 376.33245,99.210224 C 355.32005,91.699647 349.32657,65.673433 365,50 c 6.1216,-6.121603 11.89857,-8.45421 21,-8.479313 6.20993,-0.01713 8.47729,0.459232 13.1816,2.769398 10.72711,5.267802 16.27703,14.374975 16.27703,26.709915 0,8.519077 -2.07624,14.217016 -7.38268,20.26072 -7.16953,8.165641 -21.2639,11.69528 -31.7435,7.949504 z m 17.72315,-4.729842 c 17.47193,-6.164456 22.52003,-27.957387 9.49348,-40.983934 -9.81599,-9.815991 -25.28217,-9.815991 -35.09816,0 -18.49956,18.499561 0.97624,49.673352 25.60468,40.983934 z M 208,71 l 0,-29 17,0 17,0 0,2.472543 0,2.472544 -14.25,0.277456 L 213.5,47.5 l 0,7.5 0,7.5 9.5,0.5 c 8.66667,0.45614 9.5,0.675439 9.5,2.5 0,1.824561 -0.83333,2.04386 -9.5,2.5 l -9.5,0.5 0,13 0,13 15.25,0.276046 15.25,0.276046 0,2.473954 0,2.473954 -18,0 -18,0 0,-29 z M 254,63.018099 254,26 l 2.48687,0 2.48687,0 0.26313,34.25 0.26313,34.25 21,0.5 c 20.16667,0.480159 21,0.579365 21,2.5 0,1.936334 -0.75603,2.008534 -23.75,2.268099 L 254,100.0362 254,63.018099 Z m 69,25.198453 0,-11.783448 -9.50027,-16.907366 c -6.9347,-12.341491 -9.16264,-17.121499 -8.25,-17.700296 0.68765,-0.436112 1.69571,-0.651766 2.24013,-0.479232 0.54443,0.172534 4.47731,6.352719 8.73974,13.733744 5.01475,8.683775 8.33292,13.420046 9.40192,13.420046 1.06829,0 4.41517,-4.770158 9.47198,-13.5 7.36923,-12.721923 9.82508,-15.54261 11.36412,-13.052387 0.35976,0.582093 -3.64829,8.611659 -8.90676,17.843481 L 328,76.576225 328,88.288113 328,100 l -2.5,0 -2.5,0 0,-11.783448 z M 429,71.440983 c 0,-19.507376 0.32945,-28.355406 1.03945,-27.916599 0.5717,0.35333 8.91033,10.054888 18.53029,21.559017 C 458.1897,76.587531 466.71334,86 467.51116,86 c 1.21591,0 1.49412,-3.599474 1.71971,-22.25 0.16919,-13.987246 0.64049,-22.25 1.26913,-22.25 0.63733,0 1.09623,10.42689 1.26534,28.75 0.14593,15.8125 -0.0791,28.722425 -0.5,28.688722 -0.42094,-0.0337 -8.76152,-9.708703 -18.53464,-21.5 C 442.95759,65.647425 434.29509,56 433.4807,56 432.21797,56 432,59.238551 432,78 c 0,18.888889 -0.21212,22 -1.5,22 -1.29832,0 -1.5,-3.839891 -1.5,-28.559017 z M 137.6332,94.75 C 136.86669,92.9625 131.4232,80.925 125.53655,68 119.64989,55.075 114.7585,44.060683 114.66677,43.523741 c -0.0917,-0.536942 0.7747,-1.121432 1.92538,-1.298865 1.831,-0.282339 3.32368,2.371304 11.9585,21.259429 7.18965,15.726918 10.28455,21.505213 11.40785,21.298866 1.84897,-0.339653 12.04148,-20.305679 12.04149,-23.587984 C 152,59.92754 150.65,55.717921 149,51.840478 145.45985,43.52125 145.39813,43 147.95321,43 c 1.35334,0 2.56453,1.382021 3.94377,4.5 1.09481,2.475 2.65364,4.5 3.46408,4.5 0.82749,0 2.23524,-1.99452 3.21091,-4.549281 1.39172,-3.644164 2.15427,-4.485014 3.83271,-4.226259 2.50166,0.385665 2.41632,0.970754 -1.58073,10.837168 l -3.06334,7.561628 5.92435,11.438372 c 3.25839,6.291105 6.4951,11.438372 7.19269,11.438372 0.69758,0 4.76006,-7.65 9.02774,-17 C 190.79232,43.647954 191.7045,42 194.02032,42 195.10915,42 196,42.457335 196,43.016301 196,44.765887 171.58462,98 170.78219,98 c -0.41886,0 -3.7591,-6.3 -7.42274,-14 -3.98076,-8.366475 -7.23652,-14 -8.09099,-14 -0.85388,0 -4.11621,5.636401 -8.09913,13.993043 -3.66813,7.696174 -7.00079,13.996174 -7.40591,14 C 139.3583,97.996869 138.3997,96.5375 137.6332,94.75 Z"
         id="path3340"
         inkscape:connector-curvature="0" />
    </g>
  </g>
</svg>
